<svg xmlns="http://www.w3.org/2000/svg" width="294.65" height="277.387" viewBox="0 0 294.65 277.387">
  <defs>
    <style>
      .cls-1, .cls-10, .cls-11, .cls-12, .cls-13, .cls-14, .cls-15, .cls-16, .cls-17, .cls-18, .cls-19, .cls-2, .cls-20, .cls-21, .cls-3, .cls-4, .cls-5, .cls-6, .cls-7, .cls-8, .cls-9 {
        fill: none;
      }

      .cls-1, .cls-10, .cls-11, .cls-12, .cls-13, .cls-14, .cls-15, .cls-16, .cls-17, .cls-18, .cls-19, .cls-2, .cls-20, .cls-3, .cls-4, .cls-5, .cls-6, .cls-7, .cls-8, .cls-9 {
        stroke: #4641ff;
      }

      .cls-1, .cls-10, .cls-11, .cls-12, .cls-13, .cls-14, .cls-15, .cls-16, .cls-18, .cls-19, .cls-2, .cls-20, .cls-3, .cls-4, .cls-5, .cls-6, .cls-7, .cls-8, .cls-9 {
        stroke-miterlimit: 10;
      }

      .cls-1 {
        stroke-width: 0.13px;
      }

      .cls-2 {
        stroke-width: 0.27px;
      }

      .cls-3 {
        stroke-width: 0.4px;
      }

      .cls-4 {
        stroke-width: 0.53px;
      }

      .cls-5 {
        stroke-width: 0.66px;
      }

      .cls-6 {
        stroke-width: 0.8px;
      }

      .cls-7 {
        stroke-width: 0.93px;
      }

      .cls-8 {
        stroke-width: 1.06px;
      }

      .cls-9 {
        stroke-width: 1.2px;
      }

      .cls-10 {
        stroke-width: 1.33px;
      }

      .cls-11 {
        stroke-width: 1.46px;
      }

      .cls-12 {
        stroke-width: 1.6px;
      }

      .cls-13 {
        stroke-width: 1.73px;
      }

      .cls-14 {
        stroke-width: 1.86px;
      }

      .cls-15 {
        stroke-width: 1.99px;
      }

      .cls-16 {
        stroke-width: 2.13px;
      }

      .cls-17 {
        stroke-width: 0.85px;
      }

      .cls-18 {
        stroke-width: 0.64px;
      }

      .cls-19 {
        stroke-width: 0.43px;
      }

      .cls-20 {
        stroke-width: 0.21px;
      }
    </style>
  </defs>
  <g id="shape1" transform="translate(-11.883 -10.284)">
    <g id="Group_8" data-name="Group 8" transform="translate(11.917 10.393)">
      <g id="Group_6" data-name="Group 6">
        <path id="Path_42" data-name="Path 42" class="cls-1" d="M157.5,19.494c-2.6,1.969-5,4.125-7.4,6.188-6.2,5.438-12.6,10.97-20.5,13.689C113.7,45,98.1,28.777,82.6,38.34c-5,3.094-7.7,8.626-9.6,14.064s-3.4,11.064-7,15.564c-7.9,9.845-24.8,2.719-30.4,15.939-1.8,4.219-.9,8.907-.6,13.5,2.3,31.691-36.4,58.319-18.2,89.729,12.5,21.752,43.8,25.128,56.4,47.255,13.1,23.065,23.6,46.036,57.5,45.38,18.4-.375,35.7-9.095,54-9.751,19.8-.656,38.1,8.438,56.8,13.877s41.9,6.282,55.4-7.313,10.7-35.066,3.9-52.225-17.1-33.941-16.6-52.412c.4-18.1,14.9-35.442,12.5-52.787a31.835,31.835,0,0,0-14.5-22.034c-7.3-4.594-16.1-6.376-24.2-9.657-26.1-10.689-24.2-41.536-40.4-60.007C206.5,14.9,187.5,6.555,170.9,12.181A40.689,40.689,0,0,0,157.5,19.494Z" transform="translate(-11.917 -10.393)"/>
        <path id="Path_43" data-name="Path 43" class="cls-2" d="M155.9,23.617c-2.5,1.875-4.9,3.844-7.3,5.907-6,5.157-12.3,10.407-19.9,13.126-15.4,5.438-30.4-9.282-45.2,0-4.8,3-7.5,8.345-9.3,13.5s-3.4,10.595-6.9,15c-7.6,9.564-23.5,3.188-28.9,15.939-1.7,4.125-1,8.626-.7,13.033,1.8,30.566-34.3,56.444-17,86.822,11.9,21.284,41.9,25.315,54.4,46.6,13.1,22.315,24,44.161,56.8,43.6,17.9-.281,34.8-8.532,52.8-9.282,19.1-.844,36.7,7.407,54.6,12.189s40.1,5.157,53-8.063,10.6-33.66,4.5-50.256-15.6-32.816-15.3-50.631c.4-17.439,13.9-34.223,11.5-50.912a31.832,31.832,0,0,0-14-21.659c-7-4.688-15.5-6.563-23.3-9.939C230.5,77.717,231.2,48.37,215,30.93c-11.1-12-29.6-19.69-45.9-14.345A43.884,43.884,0,0,0,155.9,23.617Z" transform="translate(-11.917 -10.671)"/>
        <path id="Path_44" data-name="Path 44" class="cls-3" d="M154.3,27.825c-2.4,1.781-4.8,3.657-7.1,5.626-5.9,4.876-12,9.845-19.3,12.564-14.8,5.344-29.2-8.063-43.4.938-4.7,3-7.2,8.063-9.1,13.033S72,70.018,68.6,74.331c-7.3,9.189-22.3,3.657-27.4,15.846-1.7,3.938-1,8.345-.8,12.564,1.4,29.441-32.2,54.662-15.7,84.01,11.4,20.815,39.8,25.6,52.3,46.036,13.1,21.471,24.4,42.286,56.1,41.911,17.5-.188,34-7.876,51.6-8.814,18.4-.938,35.3,6.469,52.5,10.5s38.3,3.938,50.6-8.814,10.6-32.254,5.1-48.287-14.2-31.691-13.8-48.849c.4-16.783,12.8-33,10.4-49.131a32.414,32.414,0,0,0-13.6-21.377c-6.7-4.688-14.9-6.751-22.4-10.22-24.2-10.97-24.8-38.911-41-55.413C201.4,22.95,183.3,15.73,167.3,20.887A53.111,53.111,0,0,0,154.3,27.825Z" transform="translate(-11.917 -10.942)"/>
        <path id="Path_45" data-name="Path 45" class="cls-4" d="M152.7,31.974c-2.4,1.688-4.7,3.469-6.9,5.251-5.8,4.594-11.7,9.376-18.7,12-14.2,5.251-28-6.751-41.6,1.969-4.5,2.907-7,7.782-8.9,12.47s-3.4,9.751-6.7,13.877c-7,8.813-21.1,4.125-26,15.846-1.6,3.844-1.1,8.063-1,12.1.9,28.316-30.1,52.881-14.6,81.2,11,20.44,38,25.878,50.5,45.474,13.1,20.627,24.8,40.317,55.5,40.13,17-.094,33.2-7.313,50.3-8.345,17.7-1.125,33.9,5.438,50.4,8.814s36.4,2.813,48.2-9.47,10.5-30.941,5.7-46.318-12.8-30.472-12.4-46.974c.3-16.127,11.8-31.785,9.3-47.255a32.926,32.926,0,0,0-13.1-21c-6.4-4.688-14.2-7.032-21.5-10.5-23.3-11.158-25-37.5-41.4-53.069-11.1-10.689-28.8-17.346-44.5-12.47A46.077,46.077,0,0,0,152.7,31.974Z" transform="translate(-11.917 -11.246)"/>
        <path id="Path_46" data-name="Path 46" class="cls-5" d="M151.2,36.185c-2.3,1.5-4.5,3.282-6.7,4.969-5.6,4.313-11.4,8.813-18.2,11.345-13.7,5.157-26.9-5.532-39.8,2.907-4.3,2.813-6.8,7.407-8.7,12s-3.4,9.282-6.6,13.22c-6.7,8.532-19.8,4.688-24.5,15.846-1.5,3.657-1.1,7.688-1.1,11.626.4,27.191-28,51.1-13.3,78.29,10.5,20.065,36,26.065,48.5,44.911,13.1,19.784,25.2,38.254,54.8,38.442,16.6.094,32.4-6.657,49.1-7.97,17-1.313,32.6,4.407,48.3,7.126s34.6,1.688,45.9-10.22,10.5-29.535,6.3-44.349-11.3-29.347-11-45.193c.3-15.471,10.7-30.472,8.2-45.38a33.34,33.34,0,0,0-12.7-20.627c-6.2-4.688-13.6-7.22-20.5-10.782C226.9,81.1,224,56.156,207.5,41.53,196.3,31.591,179.2,25.4,163.7,30A49.413,49.413,0,0,0,151.2,36.185Z" transform="translate(-11.917 -11.519)"/>
        <path id="Path_47" data-name="Path 47" class="cls-6" d="M149.6,40.306c-2.3,1.406-4.4,3.094-6.6,4.594-5.4,4.032-11.1,8.345-17.6,10.782-13.1,4.969-25.7-4.219-38,3.938C83.3,62.34,80.9,66.747,79,71.06s-3.4,8.907-6.4,12.658c-6.4,8.157-18.6,5.157-23,15.846-1.5,3.563-1.2,7.407-1.2,11.158-.1,26.065-25.9,49.224-12.1,75.477,10,19.69,34.1,26.347,46.5,44.349,13.2,18.94,25.7,36.473,54.1,36.66,16.1.094,31.6-6.094,47.8-7.5s31.2,3.469,46.1,5.438,32.7.469,43.5-10.876,10.4-28.222,6.9-42.38-9.9-28.222-9.5-43.411c.3-14.814,9.7-29.253,7.1-43.6a34.825,34.825,0,0,0-12.2-20.346c-5.9-4.782-12.9-7.407-19.6-11.064-21.4-11.439-25.5-34.879-42-48.474-11.2-9.282-27.9-15-43-10.595A55.008,55.008,0,0,0,149.6,40.306Z" transform="translate(-11.917 -11.796)"/>
        <path id="Path_48" data-name="Path 48" class="cls-7" d="M148,44.448c-2.2,1.313-4.3,2.813-6.4,4.313-5.3,3.75-10.7,7.782-17,10.22-12.5,4.876-24.5-3-36.1,4.876-3.9,2.625-6.3,6.845-8.2,10.97s-3.5,8.438-6.3,12.1c-6.1,7.876-17.4,5.626-21.6,15.752-1.4,3.375-1.2,7.126-1.3,10.689-.5,24.94-23.8,47.443-10.9,72.664,9.5,19.221,32.1,26.534,44.5,43.786,13.2,18.1,26.1,34.5,53.4,34.973,15.6.281,30.8-5.438,46.6-7.032,15.5-1.5,29.8,2.532,44,3.75s30.9-.656,41.1-11.626c10.3-10.97,10.4-26.816,7.5-40.411s-8.4-27-8.1-41.63c.3-14.158,8.6-28.034,6-41.723a35.214,35.214,0,0,0-11.8-19.971c-5.6-4.782-12.3-7.688-18.7-11.345C224.3,83.359,219,61.419,202.4,48.761c-11.3-8.626-27.5-13.783-42.3-9.657A49.4,49.4,0,0,0,148,44.448Z" transform="translate(-11.917 -12.094)"/>
        <path id="Path_49" data-name="Path 49" class="cls-8" d="M146.4,48.671c-2.1,1.219-4.2,2.625-6.2,4.032-5.2,3.563-10.4,7.22-16.4,9.657-11.9,4.782-23.4-1.688-34.3,5.907-3.7,2.625-6.1,6.563-8,10.407s-3.5,7.97-6.3,11.533c-5.8,7.5-16.1,6.094-20.1,15.658-1.4,3.282-1.3,6.751-1.5,10.22-1,23.815-21.7,45.661-9.6,69.852,9,18.846,30.2,26.816,42.6,43.224,13.2,17.252,26.5,32.629,52.7,33.191,15.2.375,30-4.876,45.3-6.563,14.8-1.688,28.5,1.5,41.9,2.063s29-1.875,38.8-12.283,10.3-25.5,8.1-38.442-7-25.878-6.7-39.755c.3-13.5,7.5-26.816,4.9-39.942a36.082,36.082,0,0,0-11.3-19.6c-5.3-4.782-11.6-7.876-17.8-11.626-19.4-11.626-25.9-32.16-42.6-43.88-11.3-7.97-27.1-12.564-41.6-8.72A54.88,54.88,0,0,0,146.4,48.671Z" transform="translate(-11.917 -12.379)"/>
        <path id="Path_50" data-name="Path 50" class="cls-9" d="M144.8,52.779c-2.1,1.125-4.1,2.438-6,3.657-5.1,3.282-10.1,6.751-15.8,9-11.4,4.594-22.2-.469-32.5,6.845-3.5,2.532-5.8,6.282-7.8,9.939s-3.6,7.595-6.2,10.97c-5.5,7.22-14.9,6.563-18.7,15.658-1.3,3.094-1.3,6.469-1.5,9.751-1.5,22.69-19.7,43.88-8.4,66.945,8.5,18.377,28.2,27,40.6,42.567,13.2,16.5,26.9,30.753,52,31.5,14.7.469,29.2-4.219,44.1-6.094,14.1-1.875,27.1.469,39.8.375s27.2-3,36.4-13.033,10.2-24.1,8.7-36.473-5.5-24.753-5.3-37.973c.3-12.845,6.5-25.5,3.8-38.067a37.4,37.4,0,0,0-10.9-19.221c-5-4.782-11-8.157-16.9-11.908-18.5-11.814-26.2-30.847-42.9-41.63-11.3-7.313-26.6-11.439-40.8-7.782A84.925,84.925,0,0,0,144.8,52.779Z" transform="translate(-11.917 -12.643)"/>
        <path id="Path_51" data-name="Path 51" class="cls-10" d="M143.3,57.009c-2,1.031-3.9,2.25-5.8,3.375-4.9,3-9.8,6.188-15.2,8.438-10.8,4.5-21,.75-30.7,7.876-3.3,2.438-5.6,5.907-7.5,9.376s-3.6,7.126-6,10.407c-5.2,6.845-13.7,7.032-17.2,15.658-1.2,3-1.4,6.188-1.7,9.282-1.9,21.659-17.5,42-7.2,64.132,8,18,26.3,27.284,38.6,42,13.1,15.752,27.2,28.878,51.3,29.816,14.3.563,28.4-3.563,42.9-5.719,13.4-1.969,25.7-.469,37.6-1.313,12.1-.844,25.4-4.125,34-13.783,8.6-9.564,10.3-22.69,9.3-34.5s-4-23.534-3.8-36.192c.3-12.189,5.4-24.284,2.8-36.192a39.962,39.962,0,0,0-10.4-18.94c-4.7-4.876-10.4-8.345-16-12.189C220.7,86.638,211.9,69.1,195.1,59.259c-11.3-6.563-26.2-10.22-40.1-6.845A63.569,63.569,0,0,0,143.3,57.009Z" transform="translate(-11.917 -12.935)"/>
        <path id="Path_52" data-name="Path 52" class="cls-11" d="M141.7,61.129c-2,.938-3.8,1.969-5.7,3.094-4.8,2.719-9.5,5.719-14.6,7.876-10.2,4.407-19.8,2.063-28.8,8.813-3.2,2.344-5.4,5.626-7.3,8.907a107.7,107.7,0,0,1-5.9,9.751c-4.9,6.469-12.4,7.595-15.8,15.564-1.2,2.813-1.4,5.813-1.8,8.813-2.4,20.534-15.5,40.223-6,61.319C63.3,202.9,80.1,212.74,92.5,226.71c13.1,14.814,27.7,26.909,50.6,28.034,13.8.656,27.6-2.907,41.6-5.251,12.7-2.063,24.4-1.5,35.5-2.907,11.4-1.5,23.5-5.344,31.7-14.439,8.1-9.189,10.1-21.377,9.8-32.535s-2.6-22.409-2.4-34.41c.2-11.533,4.4-23.065,1.7-34.41a43.522,43.522,0,0,0-9.9-18.565c-4.4-4.876-9.7-8.532-15.1-12.47-16.6-12.1-26.6-28.128-43.5-37.035-11.4-5.907-25.8-9.095-39.4-5.907A85.473,85.473,0,0,0,141.7,61.129Z" transform="translate(-11.917 -13.21)"/>
        <path id="Path_53" data-name="Path 53" class="cls-12" d="M140.1,65.375c-1.9.844-3.7,1.781-5.5,2.719-4.6,2.438-9.2,5.157-14.1,7.313-9.7,4.219-18.7,3.375-27,9.845a32.714,32.714,0,0,0-7.1,8.438c-1.9,3-3.7,6.282-5.9,9.189-4.6,6.188-11.2,8.063-14.3,15.564a34.843,34.843,0,0,0-1.9,8.345C61.5,146.2,50.9,165.23,59.6,185.3c7,17.158,22.4,27.753,34.7,40.88,13.2,13.97,28.1,25.034,50,26.253,13.4.75,26.8-2.344,40.4-4.782,12-2.156,23-2.438,33.4-4.594,10.6-2.25,21.7-6.469,29.3-15.189s10.1-19.971,10.4-30.566-1.2-21.284-.9-32.535c.2-10.876,3.3-21.846.6-32.535a44.76,44.76,0,0,0-9.5-18.19c-4.2-4.876-9.1-8.72-14.2-12.751C218.2,89.1,207,74.47,190,66.594c-11.4-5.251-25.4-7.782-38.7-4.876A57.544,57.544,0,0,0,140.1,65.375Z" transform="translate(-11.917 -13.519)"/>
        <path id="Path_54" data-name="Path 54" class="cls-13" d="M138.6,69.494c-1.8.75-3.6,1.594-5.3,2.438-4.5,2.157-8.9,4.688-13.5,6.751-9.1,4.125-17.5,4.594-25.2,10.876a34.6,34.6,0,0,0-6.8,7.876c-1.9,2.813-3.7,5.813-5.7,8.626-4.3,5.813-9.9,8.532-12.8,15.471a36.515,36.515,0,0,0-2,7.876c-3.4,18.283-11.4,36.66-3.6,55.6,6.5,16.783,20.4,27.941,32.7,40.317,13.2,13.126,28.5,23.159,49.3,24.565,12.9.938,26-1.688,39.1-4.313,11.3-2.344,21.6-3.469,31.3-6.282,9.9-2.907,19.8-7.688,26.9-15.939s10-18.658,11-28.6.3-20.065.5-30.753c.2-10.314,2.2-20.534-.5-30.753a49,49,0,0,0-9-17.815A88.379,88.379,0,0,0,231.7,102.5C217,90.122,204.7,77,187.6,70.057c-11.4-4.594-24.9-6.657-38-3.938A67.468,67.468,0,0,0,138.6,69.494Z" transform="translate(-11.917 -13.794)"/>
        <path id="Path_55" data-name="Path 55" class="cls-14" d="M137,73.629c-1.8.656-3.4,1.406-5.1,2.156-4.4,1.969-8.6,4.125-12.9,6.094-8.5,4.032-16.4,5.907-23.4,11.814A43.32,43.32,0,0,0,89,101.1c-1.9,2.625-3.7,5.438-5.6,8.063-4,5.532-8.7,9-11.4,15.471a49.727,49.727,0,0,0-2.2,7.5c-3.8,17.158-9.2,34.785-2.3,52.881,6,16.408,18.5,28.222,30.8,39.755,13.2,12.283,28.9,21.19,48.6,22.784,12.5,1.031,25.2-1.031,37.9-3.938,10.5-2.438,20.2-4.5,29.2-7.97,9.1-3.657,18-8.813,24.6-16.6s10-17.252,11.6-26.628,1.7-18.94,1.9-28.972c.2-9.657,1.1-19.315-1.6-28.878a54.308,54.308,0,0,0-8.6-17.439,84.675,84.675,0,0,0-12.4-13.314c-13.9-12.47-27.3-24.19-44.5-30.1a72.769,72.769,0,0,0-37.2-3A64.531,64.531,0,0,0,137,73.629Z" transform="translate(-11.917 -14.084)"/>
        <path id="Path_56" data-name="Path 56" class="cls-15" d="M135.4,77.832c-1.7.563-3.3,1.125-5,1.781-4.2,1.688-8.3,3.563-12.3,5.532-7.9,3.938-15.1,7.22-21.5,12.845a60.526,60.526,0,0,0-6.4,6.845c-1.9,2.438-3.7,4.969-5.5,7.5-3.7,5.157-7.5,9.47-9.9,15.47a56.73,56.73,0,0,0-2.3,6.938c-4.3,16.033-7.1,33-1.1,49.974,5.5,15.939,16.5,28.5,28.8,39.1,13.3,11.439,29.3,19.315,47.9,21.1a106.176,106.176,0,0,0,36.6-3.469c9.8-2.532,18.9-5.438,27-9.657a71.147,71.147,0,0,0,22.2-17.346,64.878,64.878,0,0,0,12.2-24.659,118.535,118.535,0,0,0,3.4-27.191c.2-9,0-18.1-2.7-27a66.367,66.367,0,0,0-8.1-17.158,88.549,88.549,0,0,0-11.4-13.6c-12.9-12.47-27.5-22.878-44.8-27.753A80.057,80.057,0,0,0,146,75.019,96.965,96.965,0,0,0,135.4,77.832Z" transform="translate(-11.917 -14.349)"/>
        <ellipse id="Ellipse_8" data-name="Ellipse 8" class="cls-16" cx="87.8" cy="82.322" rx="87.8" ry="82.322" transform="translate(59.483 63.764)"/>
      </g>
      <g id="Group_7" data-name="Group 7" transform="translate(36.991 42.513)">
        <ellipse id="Ellipse_9" data-name="Ellipse 9" class="cls-8" cx="83.1" cy="77.915" rx="83.1" ry="77.915" transform="translate(27.393 25.658)"/>
        <path id="Path_59" data-name="Path 59" class="cls-17" d="M75.664,2.436c41.788,1.346,76.754,36.312,78.1,78.1s-31.439,74.573-73.227,73.227-76.754-36.312-78.1-78.1S33.876,1.091,75.664,2.436Z" transform="translate(0 103.558) rotate(-45)"/>
        <ellipse id="Ellipse_11" data-name="Ellipse 11" class="cls-18" cx="73" cy="68.445" rx="73" ry="68.445" transform="translate(37.493 35.128)"/>
        <ellipse id="Ellipse_12" data-name="Ellipse 12" class="cls-19" cx="68" cy="63.757" rx="68" ry="63.757" transform="translate(42.493 39.816)"/>
        <ellipse id="Ellipse_13" data-name="Ellipse 13" class="cls-20" cx="63" cy="59.069" rx="63" ry="59.069" transform="translate(47.493 44.504)"/>
        <ellipse id="Ellipse_14" data-name="Ellipse 14" class="cls-21" cx="58" cy="54.381" rx="58" ry="54.381" transform="translate(52.493 49.286)"/>
      </g>
    </g>
  </g>
</svg>
