<svg id="Layer_1" data-name="Layer 1" xmlns="http://www.w3.org/2000/svg" viewBox="0 0 133 64"><defs><style>.cls-1,.cls-2{fill:#fff;}.cls-2{fill-rule:evenodd;}</style></defs><title>aasood logo</title><path class="cls-1" d="M124.32,19.05V42.33a3.15,3.15,0,1,1-6.3,0V19.05a3.15,3.15,0,1,1,6.3,0Z"/><path class="cls-1" d="M110.05,33v9.31a3.15,3.15,0,1,1-6.3,0V33a3.15,3.15,0,1,1,6.3,0Z"/><path class="cls-1" d="M96.41,26.48V42.33a3.15,3.15,0,1,1-6.3,0V26.48a3.15,3.15,0,1,1,6.3,0Z"/><path class="cls-1" d="M82.77,19.05V42.33a3.15,3.15,0,1,1-6.3,0V19.05a3.15,3.15,0,1,1,6.3,0Z"/><path class="cls-1" d="M28.43,28A17.19,17.19,0,0,1,11.24,45.48H4.09a3.17,3.17,0,1,1,0-6.34h7.13A10.84,10.84,0,0,0,22.07,28.2,11,11,0,0,0,10.92,17.44H4.09a3.17,3.17,0,0,1,0-6.34h6.78A17.45,17.45,0,0,1,28.43,28Z"/><path class="cls-1" d="M68.76,28.22V42.3a3.18,3.18,0,1,1-6.36,0V28.15a10.87,10.87,0,0,0-10.84-10.7H50.3A10.86,10.86,0,0,0,39.45,28.31,10.87,10.87,0,0,0,50.3,39.16h3.17a3.17,3.17,0,1,1,0,6.34H50.28A17.19,17.19,0,0,1,38.13,16.15a17,17,0,0,1,12.15-5h1.29a17.24,17.24,0,0,1,17.14,16c0,.35,0,.7,0,1.06Z"/><path class="cls-1" d="M132.08,3.59v0a3.16,3.16,0,0,1-3.15,3.15h-8a10.87,10.87,0,0,0-10.86,10.86v2.51a3.16,3.16,0,1,1-6.31,0V17.69A17.27,17.27,0,0,1,121,.44h7.93A3.16,3.16,0,0,1,132.08,3.59Z"/><path class="cls-2" d="M10.42,53.43v1.28l-.41-.3a5.06,5.06,0,0,0-3-1H6.22a5.09,5.09,0,0,0,0,10.17H7a5,5,0,0,0,3-1l.41-.31v1.22h1.64v-10ZM6.22,55H7a3.45,3.45,0,0,1,0,6.9H6.22a3.45,3.45,0,0,1,0-6.9Zm17.09-1.6v1.28l-.41-.3a5.06,5.06,0,0,0-3-1h-.74a5.09,5.09,0,1,0,0,10.17h.74a5,5,0,0,0,3-1l.41-.31v1.22H25v-10ZM19.12,55h.74a3.45,3.45,0,0,1,0,6.9h-.74a3.45,3.45,0,0,1,0-6.9ZM58,53.39H56.84a5.09,5.09,0,1,0,0,10.17H58a5.09,5.09,0,1,0,0-10.17ZM56.84,55H58a3.45,3.45,0,0,1,0,6.9H56.84a3.45,3.45,0,0,1,0-6.9ZM28.28,61.94v1.62h5.6a3,3,0,1,0,0-5.9H30.26a1.33,1.33,0,0,1,0-2.65h5.46V53.39H30.26a3,3,0,0,0,0,5.9h3.62a1.33,1.33,0,0,1,0,2.65ZM74.1,51.43v3.28l-.41-.3a5.06,5.06,0,0,0-3-1H69.9a5.09,5.09,0,0,0,0,10.17h.75a5,5,0,0,0,3-1l.41-.31v1.22h1.63v-12ZM69.9,55h.75a3.45,3.45,0,0,1,0,6.9H69.9a3.45,3.45,0,0,1,0-6.9ZM44.85,53.39H43.73a5.09,5.09,0,1,0,0,10.17h1.12a5.09,5.09,0,1,0,0-10.17ZM43.73,55h1.12a3.45,3.45,0,0,1,0,6.9H43.73a3.45,3.45,0,1,1,0-6.9Z"/><path class="cls-2" d="M79.13,61.53a1,1,0,1,0,1,1,1,1,0,0,0-1-1m35,2h1.64v-5.1a3.45,3.45,0,0,1,6.9,0v5.1h1.64v-5.1a5.08,5.08,0,0,0-9.16-3l-.2.27-.2-.27a5.08,5.08,0,0,0-9.16,3v5.1h1.64v-5.1a3.45,3.45,0,1,1,6.9,0ZM98.71,53.39H97.58a5.09,5.09,0,0,0,0,10.17h1.13a5.09,5.09,0,0,0,0-10.17ZM97.58,55h1.13a3.45,3.45,0,1,1,0,6.9H97.58a3.45,3.45,0,0,1,0-6.9Zm-7,0V53.39H86.46a5.09,5.09,0,1,0,0,10.17h4.09V61.93H86.46a3.45,3.45,0,1,1,0-6.9Z"/></svg>